<?xml version="1.0" standalone="no"?>
<!DOCTYPE svg PUBLIC "-//W3C//DTD SVG 20010904//EN"
 "http://www.w3.org/TR/2001/REC-SVG-20010904/DTD/svg10.dtd">
<svg version="1.0" xmlns="http://www.w3.org/2000/svg"
 width="958.000000pt" height="537.000000pt" viewBox="0 0 958.000000 537.000000"
 preserveAspectRatio="xMidYMid meet">

<g transform="translate(0.000000,537.000000) scale(0.100000,-0.100000)"
fill="#000000" stroke="none">
<path d="M0 3910 c0 -835 4 -1460 9 -1460 5 0 69 -9 142 -20 143 -22 199 -36
199 -51 0 -14 -122 -11 -166 4 -22 8 -72 17 -111 21 l-73 6 1 -197 1 -198 18
38 c13 30 15 48 9 75 -11 48 -11 143 0 160 5 8 22 12 42 10 26 -2 42 -14 76
-56 42 -52 44 -56 41 -115 -3 -59 -2 -61 31 -84 18 -12 50 -25 70 -28 20 -3
50 -10 66 -16 17 -6 47 -15 69 -19 23 -5 52 -21 73 -42 31 -32 33 -37 23 -64
-7 -16 -11 -67 -9 -114 4 -134 0 -194 -16 -209 -13 -13 -20 -12 -57 8 -24 13
-56 36 -73 51 -47 42 -89 52 -232 55 l-133 3 0 -69 0 -69 30 0 c40 0 40 -30 0
-53 l-30 -18 0 -730 0 -729 433 1 c237 0 441 4 452 8 11 5 25 5 31 0 6 -5 643
-8 1475 -7 l1464 3 3 45 c7 83 -15 155 -104 348 -19 41 -34 80 -34 88 0 9 -4
12 -10 9 -6 -4 -7 1 -3 11 5 13 3 16 -10 11 -10 -4 -14 -2 -11 7 2 6 -9 31
-25 54 -17 23 -25 39 -18 36 6 -2 22 -19 34 -37 43 -60 110 -125 145 -137 41
-15 67 -48 48 -60 -8 -5 -10 -18 -6 -33 5 -20 12 -25 33 -24 23 2 31 -5 49
-41 12 -23 28 -50 36 -60 18 -22 12 -53 -9 -45 -13 5 -14 -1 -9 -35 3 -23 15
-64 27 -92 18 -41 26 -50 47 -50 23 0 24 1 10 18 -13 14 -60 98 -77 135 -9 23
59 -27 85 -60 15 -21 36 -47 46 -57 10 -11 18 -23 18 -28 0 -4 9 -8 21 -8 17
0 19 4 13 23 -6 21 -6 21 15 -3 l22 -25 -20 42 c-18 36 -19 42 -5 47 22 9 24
8 24 -10 0 -8 -4 -12 -10 -9 -5 3 -10 1 -10 -4 0 -6 7 -11 16 -11 8 0 12 -4 9
-10 -3 -5 -1 -10 5 -10 6 0 8 -5 4 -12 -4 -6 -3 -8 4 -4 6 3 13 2 17 -4 6 -10
235 -15 235 -6 0 3 -27 67 -61 143 -73 168 -136 355 -149 443 -12 84 3 198 32
235 4 6 21 27 39 48 25 30 30 42 24 65 -13 45 -14 52 -4 52 5 0 9 -4 9 -9 0
-4 13 -8 28 -7 24 1 28 5 25 26 -4 22 -3 23 7 8 6 -10 15 -18 20 -18 20 0 9
29 -20 57 -35 33 -37 54 -9 94 15 22 18 33 10 43 -6 7 -8 16 -5 19 4 3 -9 15
-27 26 -19 12 -30 21 -25 21 5 0 3 7 -5 16 -10 13 -10 17 2 24 11 8 12 13 2
30 -16 25 -17 62 -1 78 22 22 2 152 -23 152 -5 0 -9 13 -9 29 0 17 -4 33 -10
36 -5 3 -10 33 -10 65 0 91 -30 155 -123 258 -21 23 -35 47 -32 52 3 5 27 -14
52 -43 26 -28 65 -71 87 -95 55 -58 75 -99 69 -139 -8 -46 28 -109 97 -168 31
-27 63 -60 70 -71 6 -12 19 -21 29 -20 10 1 24 -17 39 -46 15 -32 29 -48 41
-48 10 0 24 -7 31 -14 6 -8 26 -20 44 -26 31 -10 34 -15 90 -193 32 -100 79
-234 104 -297 81 -210 84 -218 70 -240 -7 -11 -18 -20 -24 -20 -5 0 -20 -9
-33 -21 -12 -12 -24 -19 -25 -18 -1 2 -13 29 -25 59 -25 66 -89 149 -113 150
-18 0 -36 20 -19 20 6 0 8 7 4 16 -4 11 -15 15 -35 12 -21 -3 -32 0 -39 14
-10 18 -39 25 -39 9 0 -5 16 -51 35 -102 34 -88 85 -256 85 -278 0 -7 -17 -8
-45 -4 -26 3 -45 2 -45 -4 0 -5 30 -56 66 -112 77 -120 87 -142 104 -238 l13
-73 218 0 219 0 -9 23 c-43 110 -164 394 -226 532 -127 279 -223 548 -286 799
-22 89 -42 170 -46 181 -3 12 -2 16 4 10 5 -5 19 -44 32 -85 13 -41 27 -83 32
-92 5 -10 9 -28 9 -42 0 -32 15 -42 86 -61 32 -8 84 -31 114 -49 31 -19 67
-37 80 -41 60 -16 97 -153 50 -183 -25 -15 -25 -26 1 -61 29 -39 37 -131 14
-155 -10 -9 -23 -15 -30 -13 -23 9 -35 -8 -28 -43 4 -28 19 -45 66 -82 59 -47
80 -54 123 -42 16 4 19 11 16 35 -4 29 -3 30 24 27 23 -2 29 -8 29 -26 0 -14
13 -33 32 -48 17 -13 41 -45 53 -70 19 -38 21 -55 16 -102 -4 -30 -12 -62 -18
-69 -15 -19 -49 -16 -78 7 -28 22 -140 29 -140 9 0 -5 -5 -7 -10 -4 -6 3 -13
0 -16 -8 -8 -22 23 -76 51 -89 14 -6 25 -14 26 -17 6 -36 4 -80 -3 -69 -17 23
1 -66 23 -120 l22 -52 2148 0 2149 0 0 1723 c0 1327 -3 1726 -12 1735 -15 15
-48 16 -48 2 0 -5 -6 -10 -13 -10 -8 0 -22 -9 -32 -20 -23 -26 -37 -25 -63 3
-22 23 -28 60 -16 91 9 24 75 21 109 -5 22 -18 29 -20 36 -8 6 8 8 29 5 47 -4
25 0 35 15 45 18 11 19 25 19 279 0 290 1 285 -53 256 -12 -6 -61 -17 -109
-24 -48 -8 -101 -20 -117 -29 -17 -8 -40 -15 -53 -15 -31 0 -149 -34 -177 -51
-18 -11 -21 -20 -16 -44 7 -32 14 -75 39 -220 29 -173 52 -268 78 -321 8 -16
6 -28 -7 -47 -19 -30 -29 -34 -93 -43 -69 -9 -85 9 -117 126 -51 185 -74 248
-99 274 -15 14 -26 36 -26 50 0 14 -5 28 -11 32 -7 4 -10 -6 -7 -32 3 -34 0
-40 -24 -48 -25 -9 -32 -5 -89 57 -55 60 -65 67 -99 67 -52 0 -88 -15 -101
-42 -5 -13 -16 -34 -24 -48 -8 -14 -15 -36 -15 -49 0 -49 -62 -210 -96 -250
-28 -33 -54 -121 -54 -180 1 -62 35 -283 54 -351 20 -69 20 -104 1 -120 -31
-25 -62 6 -99 100 -3 8 -3 -27 0 -77 5 -89 4 -94 -20 -118 -31 -31 -76 -33
-101 -5 -14 15 -20 46 -26 128 -8 98 -14 135 -39 232 -9 34 -38 202 -59 340
-36 241 -53 310 -73 310 -10 0 -454 -111 -728 -181 -85 -22 -180 -46 -210 -54
-99 -25 -124 -32 -195 -53 -38 -11 -133 -35 -210 -53 -77 -17 -165 -38 -195
-47 -68 -19 -94 -20 -114 -3 -33 27 -8 101 34 101 8 0 27 4 44 10 17 5 78 22
136 36 58 14 157 39 220 55 63 17 135 34 160 40 58 13 70 16 350 88 234 60
313 80 465 121 44 12 111 29 148 39 38 9 73 24 77 32 5 8 5 33 0 55 -5 21 -10
66 -10 100 0 75 9 85 111 119 41 14 83 29 94 34 21 10 82 28 290 85 211 58
244 66 276 66 16 0 46 8 67 19 20 10 63 24 95 31 55 13 58 12 82 -10 14 -13
25 -28 25 -33 0 -26 52 -176 63 -180 18 -7 124 17 182 41 28 11 74 23 102 26
29 3 74 15 100 27 27 12 67 23 91 25 90 6 82 -23 82 315 l0 299 -35 22 c-47
31 -47 58 0 58 l35 0 0 200 0 200 -4790 0 -4790 0 0 -1460z m7313 1065 c-1 -5
-8 -14 -17 -20 -18 -11 -42 7 -31 25 8 13 51 9 48 -5z m-206 -22 c5 -14 -31
-39 -69 -48 -40 -10 -37 20 5 45 34 21 58 23 64 3z m-4049 -95 c62 -18 71 -23
55 -32 -31 -18 -194 -78 -199 -74 -7 8 -7 55 -1 66 5 7 4 12 -2 12 -6 0 -11
-4 -11 -9 0 -5 -23 -24 -51 -41 -27 -18 -61 -47 -75 -65 -13 -17 -39 -40 -56
-49 -18 -10 -45 -38 -60 -62 -32 -51 -66 -157 -70 -214 -3 -39 -11 -50 -23
-30 -8 14 20 117 60 217 20 47 33 89 29 92 -3 3 -10 -2 -15 -11 -5 -9 -16 -24
-25 -32 -17 -18 -79 -148 -89 -189 -5 -19 -12 -26 -22 -23 -11 4 -13 1 -8 -14
4 -11 2 -20 -3 -20 -6 0 -12 5 -14 11 -3 8 -15 9 -36 4 -36 -8 -38 -32 -3 -28
13 2 20 -1 16 -7 -4 -6 -16 -10 -28 -9 -50 4 -69 -1 -63 -17 3 -8 2 -12 -4 -9
-5 3 -19 1 -30 -5 -17 -9 -20 -8 -20 11 0 32 -9 19 -36 -53 -21 -54 -24 -58
-19 -23 21 134 107 295 218 406 56 57 241 165 347 205 55 20 156 17 238 -8z
m3867 -7 c-6 -10 -55 -21 -55 -12 0 9 43 28 53 23 4 -2 5 -7 2 -11z m-115 -31
c12 -8 11 -10 -7 -10 -13 0 -23 5 -23 10 0 13 11 13 30 0z m2621 -23 c-13 -13
-79 -15 -83 -2 -3 11 49 23 75 17 12 -3 15 -8 8 -15z m-2653 -2 c-2 -1 -23 -5
-48 -9 -29 -5 -42 -4 -35 3 11 10 65 19 78 13 5 -2 7 -5 5 -7z m-113 -14 c6
-10 -49 -41 -72 -41 -8 0 -24 -5 -36 -12 -34 -19 -148 -47 -165 -40 -10 3 -13
1 -8 -6 5 -8 0 -12 -13 -12 -11 0 -23 -4 -26 -10 -3 -5 -22 -10 -41 -10 -19 0
-34 -4 -34 -9 0 -5 -8 -12 -17 -16 -32 -13 -127 -34 -153 -34 -34 0 70 43 140
58 28 6 61 16 73 23 12 6 42 17 67 24 25 6 79 24 120 38 89 31 154 54 157 55
1 1 4 -3 8 -8z m-2555 -33 c20 -18 84 -114 106 -161 21 -45 11 -45 184 0 63
17 131 33 150 36 l35 6 -37 -19 c-20 -11 -43 -28 -50 -38 -8 -11 -43 -25 -84
-35 -88 -21 -84 -21 -84 0 0 11 -8 5 -25 -18 -14 -19 -29 -33 -33 -33 -9 2
-17 0 -72 -19 -25 -8 -57 -18 -72 -21 -14 -3 -34 -9 -44 -13 -13 -5 -15 -3 -9
8 8 12 6 12 -8 0 -25 -20 -23 7 3 34 l20 21 -77 -8 c-95 -10 -109 -6 -61 16
20 10 38 26 41 37 3 11 14 19 27 19 11 0 18 5 15 10 -6 9 8 14 28 11 11 -2 9
47 -3 54 -5 3 -10 11 -10 16 0 19 20 -3 35 -38 12 -29 17 -33 28 -21 17 17 16
85 -2 118 -7 14 -23 36 -35 49 -20 22 -20 23 -1 13 11 -7 27 -17 35 -24z m-91
-97 c1 -9 -2 -11 -7 -5 -4 5 -18 22 -32 38 l-25 30 32 -25 c18 -13 32 -31 32
-38z m96 -31 c3 -5 1 -10 -4 -10 -6 0 -11 5 -11 10 0 6 2 10 4 10 3 0 8 -4 11
-10z m829 -79 c310 -123 374 -177 421 -354 10 -38 21 -64 25 -58 10 17 45 1
118 -54 68 -51 90 -84 84 -129 -3 -25 -7 -27 -30 -23 -97 20 -127 29 -131 38
-2 7 -6 6 -12 -2 -6 -10 -9 -5 -9 16 0 17 -5 37 -10 45 -8 11 -9 7 -4 -15 4
-16 8 -133 8 -260 1 -193 -2 -239 -17 -287 -28 -90 -33 -92 -124 -48 -73 36
-215 86 -310 110 -59 15 -67 33 -12 27 24 -2 60 -9 79 -15 145 -45 237 -75
248 -79 20 -8 7 138 -13 154 -11 7 -12 13 -6 18 13 8 14 59 2 122 -5 26 -12
64 -16 84 -6 38 -37 84 -49 72 -3 -3 -6 1 -6 9 0 9 -7 21 -15 28 -10 9 -15 9
-15 1 0 -21 -20 -11 -26 13 -9 36 -39 59 -66 53 -13 -4 -30 -1 -38 4 -12 9
-11 10 6 6 37 -8 49 8 25 32 -18 18 -24 19 -46 9 -20 -9 -23 -14 -13 -25 9
-11 9 -17 -3 -24 -11 -7 -10 -9 5 -9 13 0 16 -3 8 -12 -5 -7 -11 -21 -13 -31
-4 -15 -7 -15 -29 7 -47 47 -51 54 -33 58 13 2 8 12 -24 42 -23 21 -42 41 -41
45 1 3 -2 14 -7 24 -6 14 -10 15 -21 6 -18 -15 -20 11 -2 29 9 9 9 15 0 24 -7
7 -12 21 -12 32 0 29 -59 115 -91 131 -44 23 -91 18 -163 -18 l-66 -34 0 57 0
57 88 26 c49 15 103 27 120 27 18 0 32 5 32 11 0 5 -4 8 -9 5 -13 -9 -43 42
-39 67 2 17 -3 23 -27 28 l-30 7 31 1 c18 0 34 7 37 15 8 19 81 0 241 -63z
m3949 56 c8 -20 -9 -41 -27 -34 -23 9 -21 47 3 47 10 0 21 -6 24 -13z m-6311
-408 c2 -50 0 -69 -9 -69 -8 0 -13 -16 -14 -42 -1 -42 -1 -42 -10 -13 -11 36
-21 204 -13 217 3 5 14 2 24 -7 14 -12 19 -35 22 -86z m2228 -19 c0 -5 -2 -10
-4 -10 -3 0 -8 5 -11 10 -3 6 -1 10 4 10 6 0 11 -4 11 -10z m-2553 -62 c-3 -7
-5 -2 -5 12 0 14 2 19 5 13 2 -7 2 -19 0 -25z m-27 -225 c-15 -28 -20 -58 -21
-113 -1 -62 -2 -70 -10 -45 -15 46 -3 192 20 259 12 33 22 69 23 80 1 12 4
-16 5 -61 3 -67 0 -88 -17 -120z m-1430 142 c0 -8 -4 -15 -9 -15 -5 0 -11 7
-15 15 -3 9 0 15 9 15 8 0 15 -7 15 -15z m3928 -39 c8 2 8 0 1 -3 -8 -4 -7 -8
2 -15 12 -8 12 -9 0 -6 -8 2 -21 15 -29 29 -10 17 -10 20 -1 8 8 -9 20 -15 27
-13z m339 -22 c-3 -3 -12 -4 -19 -1 -8 3 -5 6 6 6 11 1 17 -2 13 -5z m-4266
-43 c22 -18 24 -28 27 -118 6 -209 4 -219 -45 -225 -14 -2 -32 -13 -40 -24
-12 -19 -12 -24 2 -38 9 -9 27 -16 39 -16 41 0 57 -30 55 -106 -1 -38 -6 -77
-11 -88 -7 -13 -5 -29 7 -57 20 -43 14 -142 -10 -190 -17 -31 -80 -84 -120
-99 -25 -10 -32 -7 -62 21 -26 26 -47 35 -100 45 -38 7 -103 25 -146 40 -66
24 -77 31 -75 48 5 34 109 34 208 2 43 -15 82 -26 88 -26 9 0 14 22 28 141 7
60 -15 105 -60 124 -37 16 -53 42 -36 59 6 6 34 11 63 11 l52 0 8 65 c4 36 8
76 10 90 1 14 14 35 30 48 24 21 27 30 27 87 0 53 4 66 20 78 19 13 19 16 5
50 -22 52 -19 97 6 97 4 0 17 -9 30 -19z m1999 -31 c5 0 10 -5 10 -11 0 -8 -4
-8 -15 1 -8 6 -18 9 -23 6 -4 -2 -13 9 -20 26 l-11 30 24 -26 c13 -14 29 -26
35 -26z m88 -11 c19 -14 35 -16 96 -12 58 5 88 1 152 -18 43 -13 88 -31 98
-41 11 -10 25 -18 31 -18 7 0 29 -11 49 -25 21 -14 42 -23 47 -20 5 3 6 -2 2
-11 -5 -14 -2 -16 15 -12 13 4 20 2 16 -3 -3 -5 13 -29 35 -52 23 -23 41 -45
41 -49 0 -5 7 -8 15 -8 17 0 39 -36 29 -51 -3 -6 -12 -8 -20 -5 -10 4 -13 -1
-10 -17 3 -12 8 -39 11 -60 3 -21 10 -35 14 -33 4 3 6 -5 4 -18 -4 -20 -2 -23
20 -19 22 4 25 1 31 -46 4 -28 11 -51 15 -51 18 0 20 -34 5 -78 -9 -26 -17
-54 -18 -62 -1 -8 -10 -30 -20 -49 -14 -26 -20 -31 -27 -20 -6 10 -9 6 -10
-16 -1 -16 -1 -34 0 -38 1 -5 -3 -6 -9 -2 -5 3 -10 0 -10 -8 0 -42 -95 -160
-157 -195 -37 -20 -35 -16 31 50 61 62 77 85 99 146 15 40 30 97 33 127 6 45
4 54 -11 57 -14 3 -17 20 -21 123 -3 65 -9 124 -14 130 -6 7 -7 15 -3 18 3 4
-2 9 -11 13 -9 3 -16 17 -16 33 0 14 -4 32 -9 40 -7 11 -11 10 -20 -5 -10 -18
-10 -18 -12 1 -1 11 -2 26 -2 32 1 7 -3 11 -7 8 -4 -3 -19 13 -34 35 -19 28
-31 38 -43 34 -14 -5 -15 -4 -4 4 10 7 1 19 -40 52 -30 23 -65 51 -79 63 -32
27 -86 46 -130 45 -19 0 -27 -2 -17 -5 9 -2 17 -10 17 -17 0 -10 -13 -9 -57 5
-31 11 -63 19 -71 19 -8 0 -29 12 -47 28 -17 15 -40 33 -51 40 -10 7 -3 5 16
-4 19 -9 45 -25 58 -35z m105 30 c26 -30 15 -34 -13 -4 -13 14 -19 25 -14 25
5 0 18 -9 27 -21z m-148 -47 c-3 -3 -11 0 -18 7 -9 10 -8 11 6 5 10 -3 15 -9
12 -12z m2160 -122 c3 -5 -1 -10 -9 -10 -9 0 -16 5 -16 10 0 6 4 10 9 10 6 0
13 -4 16 -10z m-2704 -40 c-4 -3 -8 -12 -8 -20 0 -17 -64 -112 -71 -105 -2 2
-1 24 2 49 5 31 13 47 25 51 10 3 23 17 30 32 10 21 14 24 21 13 5 -8 5 -17 1
-20z m2619 5 c0 -8 -4 -15 -10 -15 -5 0 -10 7 -10 15 0 8 5 15 10 15 6 0 10
-7 10 -15z m-134 -16 c19 -21 19 -21 -9 -8 -15 7 -27 16 -27 21 0 14 16 9 36
-13z m745 4 c8 -9 29 -22 46 -30 42 -17 66 -53 57 -87 -9 -36 -19 -40 -68 -26
-79 22 -103 56 -98 138 2 27 42 31 63 5z m-3271 3 c0 -3 -4 -8 -10 -11 -5 -3
-10 -1 -10 4 0 6 5 11 10 11 6 0 10 -2 10 -4z m2690 -20 c0 -14 -29 -30 -38
-21 -3 3 0 5 6 5 7 0 12 7 12 15 0 8 5 15 10 15 6 0 10 -6 10 -14z m-167 -39
c-5 -8 -8 -8 -10 0 -3 7 -10 11 -16 9 -7 -1 -9 -1 -4 1 4 3 4 9 1 15 -4 6 3 5
15 -2 12 -6 19 -16 14 -23z m3882 -87 c47 -75 67 -119 75 -172 15 -92 22 -112
50 -144 14 -17 32 -53 39 -80 20 -76 52 -174 66 -200 9 -18 10 -38 3 -75 -7
-41 -6 -57 9 -89 11 -24 25 -40 36 -40 15 0 17 7 12 48 -3 26 -16 79 -30 117
-13 38 -21 72 -16 75 4 3 12 21 17 40 8 30 14 35 43 38 l33 3 -6 89 c-7 81 -6
90 13 109 19 19 29 20 98 15 135 -9 143 -11 156 -47 6 -18 10 -36 9 -41 -2 -4
2 -23 8 -41 9 -26 8 -41 -5 -71 -25 -59 1 -149 59 -203 19 -18 26 -35 26 -62
0 -20 7 -52 15 -72 8 -19 12 -37 9 -39 -3 -3 0 -18 7 -34 23 -57 27 -70 43
-124 8 -30 23 -109 31 -175 9 -66 19 -133 21 -150 5 -24 -1 -36 -25 -59 -26
-25 -31 -37 -31 -75 0 -46 26 -156 51 -219 18 -43 4 -64 -49 -75 -46 -9 -47
-12 -61 -108 -5 -36 -18 -84 -29 -105 -11 -22 -23 -61 -27 -87 -6 -35 -12 -47
-25 -47 -14 0 -18 13 -23 78 -4 61 -13 91 -41 147 -36 72 -72 122 -82 113 -3
-3 -7 -21 -11 -40 -4 -30 -2 -36 15 -40 19 -5 20 -9 10 -36 -10 -25 -9 -49 5
-120 22 -112 21 -141 -2 -171 -19 -25 -53 -30 -121 -19 -14 2 -34 0 -45 -6
-11 -5 -47 -9 -80 -7 -33 1 -82 -5 -110 -13 -27 -9 -57 -16 -65 -16 -9 0 -29
25 -45 56 -16 31 -39 61 -50 66 -30 14 -68 85 -61 115 5 19 0 30 -28 55 -37
32 -55 75 -77 183 -7 33 -18 74 -25 90 -13 33 -62 90 -70 82 -4 -3 10 -185 17
-223 4 -25 -3 -35 -23 -32 -18 2 -28 19 -51 83 -28 80 -50 159 -61 226 -4 19
-12 44 -19 54 -12 16 -18 16 -51 5 -46 -15 -65 -2 -58 38 6 35 29 53 60 45 24
-6 24 -5 18 53 -3 33 -9 104 -12 160 -5 86 -4 103 11 117 36 37 68 9 83 -73
17 -89 44 -180 53 -180 12 0 11 103 -1 135 -6 15 -15 58 -21 96 -9 60 -8 73 5
94 21 31 46 32 94 1 23 -15 58 -26 94 -29 56 -5 57 -5 112 41 54 45 56 48 50
87 -7 56 -43 115 -88 145 -51 35 -62 59 -70 156 -3 45 -15 117 -26 160 -11 42
-20 106 -20 141 0 56 4 71 29 106 17 23 36 60 44 82 8 22 22 61 32 88 21 60
45 62 80 7z m-6371 -3 c7 -6 4 -7 -6 -3 -10 3 -18 1 -18 -4 0 -6 5 -10 11 -10
5 0 -2 -23 -17 -50 -22 -41 -29 -48 -37 -35 -4 9 -5 30 -1 47 8 40 47 95 53
76 2 -7 9 -17 15 -21z m1113 1 c-3 -8 -6 -5 -6 6 -1 11 2 17 5 13 3 -3 4 -12
1 -19z m1476 5 c-7 -2 -21 -2 -30 0 -10 3 -4 5 12 5 17 0 24 -2 18 -5z m-1303
-73 c0 -5 -2 -10 -4 -10 -3 0 -8 5 -11 10 -3 6 -1 10 4 10 6 0 11 -4 11 -10z
m-1610 -95 c7 -8 9 -23 5 -32 -6 -16 -8 -16 -26 6 -18 22 -18 41 0 41 5 0 14
-7 21 -15z m2924 -36 c-1 -55 -14 -110 -24 -104 -12 7 -50 -12 -50 -25 0 -6 6
-10 14 -10 8 0 16 -15 20 -38 3 -21 13 -53 22 -71 15 -29 15 -41 4 -89 -7 -31
-19 -67 -28 -80 -12 -18 -13 -28 -3 -48 17 -39 13 -75 -11 -102 -21 -22 -23
-32 -20 -115 1 -51 0 -106 -3 -124 -7 -39 -46 -88 -87 -109 -27 -14 -32 -14
-46 0 -13 13 -13 25 -4 82 11 65 10 68 -19 126 -21 41 -29 71 -27 96 3 33 7
38 43 50 32 11 48 11 77 1 20 -6 44 -9 53 -5 14 5 10 14 -24 52 -23 26 -41 53
-41 61 0 7 -14 27 -30 43 -28 28 -42 34 -62 31 -5 0 -8 5 -8 13 0 9 7 12 20 9
11 -3 20 0 20 6 0 15 47 14 56 -1 4 -6 10 -25 13 -42 6 -26 12 -32 39 -34 27
-3 34 1 42 23 17 45 12 89 -11 103 -12 8 -18 19 -15 28 4 9 -1 14 -14 14 -11
0 -20 5 -20 11 0 8 -5 7 -15 -1 -9 -7 -18 -11 -20 -8 -8 7 6 38 16 38 5 0 9 9
9 20 0 11 -5 19 -11 18 -6 -2 -16 5 -22 14 -10 14 -7 22 10 40 20 19 23 20 29
5 9 -25 26 -21 58 15 18 20 31 50 35 80 5 26 6 48 4 48 -2 0 -1 5 2 11 13 20
30 1 29 -32z m-145 -32 c-13 -13 -29 -32 -36 -43 -11 -17 -12 -17 -12 -1 -1 9
4 17 9 17 6 0 10 6 10 14 0 13 41 47 49 40 2 -2 -7 -14 -20 -27z m-238 -16
c53 -53 25 -141 -46 -141 -30 0 -34 3 -49 49 -18 57 -9 91 28 109 31 16 35 15
67 -17z m-4071 -36 c0 -9 -9 -15 -23 -15 -14 0 -24 6 -24 15 0 9 10 15 24 15
14 0 23 -6 23 -15z m4655 -34 c33 -16 72 -34 88 -40 25 -10 27 -14 27 -73 0
-70 -15 -110 -26 -70 -7 23 -44 39 -64 27 -10 -6 -111 29 -137 48 -8 6 -13 34
-13 73 l0 64 32 0 c18 0 59 -13 93 -29z m-3181 -127 c14 -37 3 -94 -19 -94 -7
0 -16 7 -19 16 -8 21 -8 79 1 87 11 12 31 7 37 -9z m2873 -70 c-3 -3 -12 -4
-19 -1 -8 3 -5 6 6 6 11 1 17 -2 13 -5z m891 -26 c23 -18 41 -41 41 -50 1 -30
12 -47 27 -41 15 6 29 -20 19 -37 -10 -16 -45 7 -45 30 0 13 -7 20 -20 20 -11
0 -20 -6 -20 -14 0 -7 -3 -27 -6 -45 -6 -26 -3 -32 19 -40 14 -5 48 -30 76
-55 31 -27 61 -46 76 -46 37 0 107 -35 139 -69 27 -28 30 -38 38 -142 5 -73 5
-116 -1 -122 -16 -16 -82 8 -128 48 -56 48 -101 65 -172 65 -43 0 -60 -4 -65
-15 -10 -27 -34 -16 -65 30 -17 25 -35 54 -41 65 -12 23 -50 201 -50 236 0 36
34 64 76 64 36 0 36 1 30 33 -18 85 -18 99 -5 108 23 14 35 11 77 -23z m-1190
-15 c-1 -10 1 -24 5 -30 6 -9 2 -13 -12 -13 -21 0 -26 15 -15 44 8 22 26 20
22 -1z m3182 -28 c-35 -26 -51 -28 -57 -8 -4 12 39 31 71 32 15 1 12 -5 -14
-24z m-5036 -43 c139 -202 197 -296 198 -321 1 -42 -19 -71 -50 -71 -32 0 -61
34 -37 44 9 3 12 0 8 -10 -3 -9 1 -14 11 -14 10 0 23 15 32 35 17 42 18 53 2
34 -7 -8 -12 -13 -11 -11 2 5 -54 97 -151 245 -42 64 -76 118 -76 120 0 1 8 3
18 4 10 1 32 -21 56 -55z m-2439 22 c36 -15 60 -15 96 0 9 4 25 -2 39 -14 29
-25 36 -25 67 0 30 24 38 20 61 -28 15 -32 22 -37 56 -40 21 -2 60 4 86 12 48
16 48 16 124 -19 42 -19 79 -42 83 -51 9 -25 -40 -64 -81 -64 -57 0 -129 -28
-158 -62 -25 -28 -30 -30 -53 -20 -14 7 -35 12 -46 12 -12 0 -36 7 -55 16 -38
18 -62 13 -70 -13 -3 -10 -10 -28 -15 -41 l-9 -23 -44 31 c-39 28 -47 31 -79
22 -30 -9 -36 -7 -40 8 -3 10 -23 28 -46 39 -45 23 -51 43 -27 89 8 15 17 54
21 87 4 33 9 63 12 68 7 12 38 8 78 -9z m5979 0 c9 -3 16 -14 16 -24 0 -31
-75 -44 -86 -15 -14 36 23 57 70 39z m-3319 -142 c-3 -3 -11 0 -18 7 -9 10 -8
11 6 5 10 -3 15 -9 12 -12z m104 -17 c8 -8 -12 -25 -29 -25 -30 0 -50 11 -50
27 0 12 8 14 38 8 20 -4 39 -8 41 -10z m-1549 -33 c-1 -25 -2 -26 -15 -9 -7
11 -11 25 -8 33 8 22 23 6 23 -24z m5150 24 c0 -14 -21 -26 -46 -26 -17 0 -19
26 -1 33 24 10 47 7 47 -7z m1257 -4 c7 -4 10 -16 8 -27 -2 -11 -4 -28 -4 -37
-1 -26 -37 -22 -45 5 -15 58 2 84 41 59z m-176 -62 c5 0 9 -4 9 -10 0 -13 -27
-13 -35 0 -4 6 -3 19 1 28 7 16 7 16 11 0 3 -10 9 -18 14 -18z m-5834 -32 c22
-25 63 -101 63 -118 0 -23 -28 -7 -73 41 -44 47 -56 76 -40 92 12 13 29 7 50
-15z m5902 -28 c25 0 41 -77 48 -237 4 -92 3 -133 -5 -133 -6 0 -13 6 -15 13
-3 7 -6 5 -6 -5 -2 -33 -20 -19 -26 20 -13 72 -13 72 -46 60 -17 -6 -33 -17
-36 -24 -13 -33 -35 4 -48 77 -9 58 -39 89 -85 89 -50 0 -70 8 -69 29 0 10 2
11 6 4 3 -9 10 -10 21 -4 9 5 21 8 25 8 5 -1 15 15 22 36 7 21 15 40 18 43 2
2 26 5 54 5 27 1 61 8 74 15 13 7 30 11 37 9 8 -3 21 -5 31 -5z m-2262 -26
c27 -21 33 -32 33 -63 0 -30 -5 -40 -22 -48 -24 -10 -60 0 -92 26 -16 13 -22
65 -10 95 9 24 53 19 91 -10z m-3924 -193 c-3 -62 -15 -101 -33 -101 -17 0
-21 41 -10 98 14 67 18 74 33 69 8 -3 11 -26 10 -66z m4732 3 c40 -26 84 -108
91 -169 5 -40 12 -59 25 -66 20 -10 25 -39 10 -54 -6 -6 -11 -30 -13 -55 l-3
-45 -48 2 c-66 2 -91 21 -106 80 -7 26 -19 69 -27 94 -7 26 -17 78 -20 116 -6
64 -5 71 17 91 27 26 42 27 74 6z m-1875 -63 c12 -23 12 -78 0 -106 -6 -15 -9
-6 -9 33 -1 29 -6 62 -11 73 -7 12 -7 19 -1 19 6 0 15 -9 21 -19z m-257 -29
c-4 -15 1 -18 30 -14 19 2 37 0 40 -5 9 -15 -20 -248 -34 -271 -17 -27 -21
-27 -37 -2 -7 12 -8 20 -2 20 11 0 11 70 0 115 -4 17 -8 25 -9 18 0 -7 -7 -10
-15 -7 -10 4 -18 -7 -27 -35 -16 -55 -29 -52 -29 7 l0 47 -25 -41 c-35 -59
-69 -172 -106 -346 -47 -230 -56 -259 -76 -251 -28 11 -83 71 -83 90 0 17 17
101 39 189 29 117 172 407 213 434 34 21 120 70 125 70 0 0 -1 -8 -4 -18z
m3097 -67 c0 -8 -4 -15 -10 -15 -5 0 -10 7 -10 15 0 8 5 15 10 15 6 0 10 -7
10 -15z m-5700 -25 c24 -24 25 -43 6 -60 -24 -19 -60 -8 -70 21 -19 55 23 80
64 39z m6245 -47 c-7 -27 -7 -28 -17 -6 -6 12 -7 34 -3 50 7 27 7 28 17 6 6
-12 7 -34 3 -50z m-5812 39 c7 21 17 4 11 -19 -7 -24 -43 -43 -84 -43 -28 0
-70 -29 -70 -49 0 -5 -3 -17 -6 -26 -6 -14 1 -16 57 -10 42 4 59 3 50 -3 -10
-7 -10 -11 -1 -17 7 -4 16 -2 20 5 5 8 9 7 14 -5 3 -9 6 -20 6 -25 0 -15 -76
-44 -122 -46 -27 -1 -54 -6 -60 -11 -7 -6 -25 -13 -40 -17 -26 -6 -28 -10 -28
-63 0 -72 13 -82 108 -83 55 0 74 -4 78 -15 8 -20 -18 -44 -55 -51 -17 -4 -28
-10 -25 -15 3 -5 -6 -9 -20 -9 -19 0 -30 -9 -42 -32 -23 -46 -44 -68 -64 -68
-30 0 -41 23 -30 60 11 39 0 59 -20 35 -17 -20 -36 -19 -60 5 -16 16 -19 29
-15 63 4 31 3 37 -4 22 -8 -17 -10 -15 -10 15 0 19 13 73 30 120 17 47 31 95
31 106 0 12 5 21 12 20 6 0 46 24 89 54 82 58 214 113 234 98 7 -6 13 -4 16 4z
m-553 -88 c53 -7 204 -77 176 -82 -10 -2 -22 2 -26 8 -4 7 -12 10 -17 7 -11
-7 -214 60 -228 75 -7 7 -1 8 20 4 17 -4 50 -9 75 -12z m4437 -20 c26 -9 75
-29 109 -45 34 -16 70 -29 80 -29 23 0 84 -36 84 -50 0 -13 -41 -13 -76 0 -14
6 -67 17 -118 26 -134 23 -240 73 -222 103 10 16 88 13 143 -5z m1862 2 c17
-20 5 -41 -35 -60 -41 -19 -54 -14 -54 18 0 41 65 71 89 42z m-449 -145 c0
-11 -39 -41 -52 -41 -17 0 -7 28 15 38 28 14 37 14 37 3z m-6350 -150 c0 -5 9
-13 20 -16 20 -6 20 -7 -5 -27 -18 -14 -25 -29 -25 -54 0 -41 22 -89 45 -98
24 -9 8 -26 -25 -26 -24 0 -33 7 -49 39 -21 40 -32 155 -17 179 8 14 56 16 56
3z m295 -71 c3 -5 -3 -10 -15 -10 -12 0 -18 5 -15 10 3 6 10 10 15 10 5 0 12
-4 15 -10z m3052 -61 c44 -44 40 -62 -15 -65 -42 -2 -44 0 -59 34 -8 21 -28
47 -44 60 -44 35 -35 42 28 22 36 -11 70 -30 90 -51z m5255 44 c10 -9 18 -24
18 -34 0 -10 5 -29 11 -42 11 -25 -1 -67 -20 -67 -43 0 -84 113 -52 144 19 20
20 20 43 -1z m-7951 -53 c4 -3 21 -16 38 -29 l31 -24 -27 -47 c-25 -45 -59
-77 -70 -67 -12 13 -20 182 -9 199 10 17 12 17 21 -4 5 -13 12 -25 16 -28z
m-198 33 c-7 -2 -21 -2 -30 0 -10 3 -4 5 12 5 17 0 24 -2 18 -5z m94 -9 c-3
-3 -12 -4 -19 -1 -8 3 -5 6 6 6 11 1 17 -2 13 -5z m708 -114 c-3 -5 -13 -10
-21 -10 -8 0 -12 5 -9 10 3 6 13 10 21 10 8 0 12 -4 9 -10z m5845 2 c0 -18
-73 -65 -84 -55 -13 13 -5 23 32 42 41 22 52 25 52 13z m-3300 -37 c0 -5 -5
-3 -10 5 -5 8 -10 20 -10 25 0 6 5 3 10 -5 5 -8 10 -19 10 -25z m-500 -70 c0
-24 28 -17 71 17 54 44 69 28 36 -38 -14 -27 -29 -58 -33 -69 -7 -17 -9 -15
-12 13 -2 17 -7 32 -13 32 -11 0 -12 -157 -1 -162 5 -1 3 -16 -4 -33 l-12 -30
-7 40 c-8 39 -52 163 -64 177 -3 4 -7 -48 -7 -115 -1 -67 -5 -138 -11 -157 -8
-31 -10 -24 -16 62 -4 54 -12 109 -17 122 -6 16 -6 28 0 31 6 3 5 16 -2 30 -6
13 -14 22 -19 20 -4 -3 -11 0 -15 6 -5 8 -3 9 6 4 10 -6 12 -4 7 9 -4 10 -7
21 -7 26 0 5 -7 15 -15 24 -9 9 -11 17 -5 21 5 3 10 2 10 -4 0 -5 11 -22 24
-36 17 -18 26 -22 29 -13 3 7 6 -3 7 -22 l2 -35 10 40 c12 52 13 74 3 110 -7
28 -6 27 24 -12 17 -24 31 -50 31 -58z m-2062 64 c15 -11 47 -34 71 -50 l43
-31 -32 -33 c-36 -37 -35 -58 5 -101 31 -33 23 -64 -9 -37 -35 31 -138 69
-156 58 -5 -3 -15 -25 -21 -48 -17 -70 -26 -75 -120 -83 -67 -5 -92 -12 -122
-32 -57 -38 -111 -110 -137 -182 -23 -65 -74 -150 -89 -150 -12 0 5 74 25 112
9 17 17 50 19 73 2 24 11 64 19 90 9 25 16 53 16 63 0 9 18 37 41 62 36 41 79
109 79 126 0 14 -129 -164 -153 -212 -32 -62 -62 -90 -145 -134 -61 -32 -71
-42 -115 -115 -26 -43 -57 -89 -68 -101 -14 -15 -18 -29 -14 -46 5 -20 -5 -34
-62 -88 -52 -50 -68 -61 -71 -48 -2 10 22 48 57 90 56 66 74 108 53 122 -5 3
-21 -4 -38 -15 -32 -21 -54 -25 -54 -9 0 5 48 63 108 127 105 116 222 256 222
268 0 3 -10 1 -22 -5 -32 -15 17 26 112 96 41 30 102 77 135 104 145 119 354
183 423 129z m-1205 -148 c12 -24 22 -32 62 -48 15 -5 8 -8 -29 -11 -35 -2
-53 1 -67 14 -24 22 -36 99 -18 120 12 14 15 12 27 -17 8 -19 19 -45 25 -58z
m2272 -21 c63 -36 79 -54 71 -77 -6 -14 -14 -9 -49 28 -23 25 -53 52 -67 61
-42 29 -10 20 45 -12z m-1924 -79 c38 -31 12 -47 -29 -18 -17 12 -32 25 -32
30 0 14 38 7 61 -12z m2016 -27 c-3 -3 -12 -4 -19 -1 -8 3 -5 6 6 6 11 1 17
-2 13 -5z m-787 -64 c13 -8 13 -11 -1 -26 -15 -15 -19 -15 -48 1 -17 9 -29 20
-26 25 8 13 55 13 75 0z m6529 -25 c34 -34 35 -37 42 -142 4 -60 9 -114 11
-122 2 -8 -8 -17 -24 -21 -25 -7 -30 -4 -54 38 -14 26 -30 62 -35 80 -25 90
-29 110 -29 148 0 22 3 44 7 47 15 16 50 4 82 -28z m-6658 -88 l16 -30 5 27
c3 14 1 29 -3 32 -5 3 -9 10 -9 16 0 6 10 4 23 -5 12 -8 21 -20 19 -27 -2 -8
3 -8 17 0 33 17 89 12 101 -9 13 -25 13 -34 0 -26 -15 9 -12 -8 5 -31 8 -10
14 -23 15 -29 0 -5 -4 -3 -10 5 -5 8 -12 12 -15 8 -3 -3 23 -50 58 -104 35
-55 78 -124 95 -156 l32 -56 -46 -22 c-41 -20 -45 -26 -41 -49 3 -15 22 -56
42 -91 21 -36 45 -85 55 -110 18 -45 18 -46 -6 -90 -13 -25 -30 -49 -37 -55
-33 -27 -40 -60 -27 -141 6 -44 14 -95 17 -114 l5 -35 -32 30 c-40 37 -90 138
-90 182 0 23 6 33 19 38 13 4 18 12 14 22 -3 8 -1 18 5 22 13 8 10 17 -39 151
-15 41 -35 111 -44 155 -14 74 -55 173 -105 253 -13 22 -42 43 -85 64 -75 35
-99 57 -29 27 33 -15 49 -18 54 -10 5 8 16 8 41 -3 22 -9 40 -11 51 -5 15 8
10 19 -37 92 -30 45 -63 93 -73 107 -10 14 -25 36 -32 50 -17 35 50 -44 71
-83z m4718 28 c27 -31 31 -43 31 -91 0 -49 -2 -55 -25 -64 -37 -14 -71 11 -79
58 -8 49 -8 117 1 125 15 16 43 5 72 -28z m-4986 -11 c20 -20 39 -49 42 -65 4
-16 12 -29 20 -29 7 0 18 -7 25 -15 20 -24 2 -17 -57 22 -30 20 -59 46 -63 59
-5 12 -14 25 -19 29 -16 9 -14 35 2 35 8 0 30 -16 50 -36z m495 -35 c-3 -8 -7
-3 -11 10 -4 17 -3 21 5 13 5 -5 8 -16 6 -23z m70 -34 c-3 -3 -9 2 -12 12 -6
14 -5 15 5 6 7 -7 10 -15 7 -18z m1632 -15 c0 -5 -2 -10 -4 -10 -3 0 -8 5 -11
10 -3 6 -1 10 4 10 6 0 11 -4 11 -10z m1865 -76 c23 -9 45 -57 45 -99 l0 -35
-59 0 c-41 0 -62 5 -72 16 -16 19 -13 105 4 116 15 9 59 10 82 2z m-3408 -121
c31 -53 143 -292 143 -305 0 -4 -15 9 -34 29 -21 24 -45 70 -64 125 -17 47
-42 109 -56 137 -15 28 -26 53 -26 56 0 14 12 1 37 -42z m-1132 7 c-3 -5 -13
-10 -21 -10 -20 0 -17 -20 4 -21 17 -1 -18 -19 -65 -33 -31 -10 -30 13 2 48
16 17 34 26 55 26 18 0 29 -4 25 -10z m-1383 -25 c14 -30 29 -32 53 -5 12 13
31 20 57 20 31 0 44 -6 67 -33 35 -39 94 -57 190 -57 50 0 72 -4 82 -16 12
-14 6 -15 -62 -10 -40 3 -103 8 -139 10 -150 9 -197 15 -223 25 -16 6 -39 11
-52 11 -31 0 -50 32 -35 60 15 28 48 25 62 -5z m3888 -2 c0 -22 -2 -25 -10
-13 -13 20 -13 40 0 40 6 0 10 -12 10 -27z m-1853 -32 c26 -38 30 -81 9 -81
-24 0 -27 -16 -11 -53 8 -20 11 -37 6 -39 -12 -5 -23 -58 -11 -58 15 0 12 -17
-4 -23 -10 -4 -13 -1 -9 9 3 7 0 14 -6 14 -6 0 -11 4 -11 9 0 4 -16 25 -35 45
-40 42 -41 48 -19 70 18 19 10 37 -14 30 -11 -4 -13 -3 -5 3 6 4 11 17 10 28
-2 21 12 24 47 9 16 -6 18 -4 13 10 -4 10 -10 29 -13 43 -10 37 24 27 53 -16z
m1603 -183 c19 -29 37 -57 39 -62 2 -6 8 -15 13 -21 14 -14 67 -112 129 -235
28 -58 57 -108 63 -112 7 -5 6 -8 -4 -9 -10 0 -8 -3 5 -9 11 -5 14 -9 8 -9 -8
-1 -5 -9 7 -21 21 -21 27 -50 10 -50 -16 0 -32 38 -17 43 8 4 7 6 -3 6 -9 1
-22 17 -29 36 -7 19 -17 35 -22 35 -5 0 -8 4 -7 8 4 10 -93 204 -105 213 -5 3
-9 10 -8 15 0 13 -71 138 -81 142 -4 2 -8 8 -8 14 0 5 -9 23 -21 39 -11 16
-17 29 -12 29 5 0 24 -24 43 -52z m-480 -79 c0 -21 -2 -22 -23 -13 -9 3 -12
14 -9 30 3 19 7 22 18 13 8 -6 14 -20 14 -30z m-2900 -30 c0 -30 -6 -34 -34
-23 -21 8 -20 41 1 53 24 13 33 5 33 -30z m1790 16 c-7 -9 -15 -13 -17 -11 -7
7 7 26 19 26 6 0 6 -6 -2 -15z m617 -17 c-3 -8 -6 -5 -6 6 -1 11 2 17 5 13 3
-3 4 -12 1 -19z m978 -4 c9 -15 12 -23 6 -20 -11 7 -35 46 -28 46 3 0 12 -12
22 -26z m1161 -56 c40 -78 63 -143 69 -194 3 -26 2 -45 -2 -41 -4 4 -14 -11
-22 -34 -9 -23 -21 -44 -28 -46 -7 -3 -22 15 -35 39 -21 39 -22 54 -20 176 2
87 -2 140 -9 155 -11 20 -11 21 5 8 10 -8 28 -36 42 -63z m-1626 45 c0 -12
-53 -84 -57 -79 -7 6 39 86 49 86 4 0 8 -3 8 -7z m1529 -60 c14 -50 1 -64 -15
-17 -16 47 -17 54 -4 54 5 0 14 -16 19 -37z m-1019 -3 c6 -11 8 -20 6 -20 -3
0 -10 9 -16 20 -6 11 -8 20 -6 20 3 0 10 -9 16 -20z m980 -41 c0 -11 -4 -17
-10 -14 -5 3 -10 13 -10 21 0 8 5 14 10 14 6 0 10 -9 10 -21z m-100 -41 c41
-30 68 -117 30 -93 -18 11 -70 87 -70 102 0 18 6 17 40 -9z m180 -27 c-1 -25
-1 -25 -15 -7 -8 11 -15 29 -15 39 0 16 3 17 15 7 8 -7 15 -24 15 -39z m-984
-26 c14 -25 25 -48 22 -50 -2 -2 -16 18 -31 46 -35 62 -27 65 9 4z m990 -79
c7 -30 2 -58 -11 -63 -13 -4 -39 63 -30 77 11 18 35 10 41 -14z m-2234 -46
c-6 -11 -9 -32 -6 -50 5 -23 3 -30 -9 -30 -24 0 -37 25 -33 61 3 19 5 37 5 41
1 11 35 15 46 6 6 -5 5 -15 -3 -28z m1322 -20 c21 -42 21 -47 5 -37 -10 6 -16
14 -14 18 3 3 -4 22 -14 42 -10 20 -15 34 -9 31 5 -3 19 -27 32 -54z"/>
<path d="M4136 4647 c3 -10 9 -15 12 -12 3 3 0 11 -7 18 -10 9 -11 8 -5 -6z"/>
<path d="M4755 4470 c-3 -5 -1 -10 4 -10 6 0 11 5 11 10 0 6 -2 10 -4 10 -3 0
-8 -4 -11 -10z"/>
<path d="M5343 3444 c-6 -13 -7 -24 -3 -24 9 0 25 39 18 45 -2 2 -8 -7 -15
-21z"/>
<path d="M3481 3318 c-1 -21 4 -38 9 -38 11 0 11 14 0 50 -7 22 -8 21 -9 -12z"/>
<path d="M3485 3260 c3 -5 8 -10 11 -10 2 0 4 5 4 10 0 6 -5 10 -11 10 -5 0
-7 -4 -4 -10z"/>
<path d="M8374 2121 c3 -18 6 -40 6 -47 0 -8 4 -14 9 -14 10 0 -3 77 -14 88
-4 4 -5 -8 -1 -27z"/>
<path d="M8943 1694 c-16 -17 -16 -34 1 -57 12 -16 14 -15 19 15 6 42 -3 61
-20 42z"/>
<path d="M1933 1544 l-28 -26 35 23 c46 29 45 29 32 29 -6 0 -24 -12 -39 -26z"/>
<path d="M1834 1469 c-17 -18 -22 -28 -12 -24 14 6 55 55 45 55 -2 0 -16 -14
-33 -31z"/>
<path d="M1576 1263 c-67 -60 -98 -109 -76 -123 21 -13 74 41 110 113 17 31
28 57 25 57 -3 0 -29 -21 -59 -47z"/>
<path d="M1445 1080 c-3 -5 -2 -10 4 -10 5 0 13 5 16 10 3 6 2 10 -4 10 -5 0
-13 -4 -16 -10z"/>
<path d="M2245 650 c10 -11 22 -17 27 -14 12 8 -11 34 -30 34 -13 0 -12 -3 3
-20z"/>
<path d="M8173 3654 c-25 -25 -26 -28 -20 -132 6 -107 25 -204 45 -224 7 -7
14 3 22 33 7 24 25 66 41 92 35 57 59 142 52 180 -7 34 -57 77 -89 77 -14 0
-37 -12 -51 -26z"/>
<path d="M77 1801 c-20 -4 -40 -11 -44 -15 -14 -14 25 -36 92 -51 39 -9 80
-18 93 -22 17 -4 22 -1 22 15 0 56 -76 91 -163 73z"/>
<path d="M405 1728 c-4 -10 -4 -26 0 -35 8 -17 8 -17 12 0 3 9 3 25 0 35 -4
16 -4 16 -12 0z"/>
<path d="M4420 1474 c0 -15 23 -44 34 -44 11 0 6 36 -6 48 -17 17 -28 15 -28
-4z"/>
<path d="M4451 1394 c0 -11 3 -14 6 -6 3 7 2 16 -1 19 -3 4 -6 -2 -5 -13z"/>
<path d="M4960 982 c0 -15 35 -42 54 -42 22 0 33 29 15 41 -18 11 -69 12 -69
1z"/>
<path d="M4588 949 c-8 -22 10 -53 37 -66 28 -13 32 -2 10 24 -8 10 -21 27
-28 37 -11 15 -15 16 -19 5z"/>
<path d="M4526 942 c-7 -11 -1 -78 18 -192 8 -52 15 -108 16 -125 l0 -29 -17
24 c-9 14 -20 27 -23 30 -16 12 -29 50 -31 91 -2 65 -9 89 -25 89 -8 0 -17 7
-20 15 -4 8 -14 15 -24 15 -10 0 -20 5 -22 10 -5 16 -48 -19 -48 -40 0 -10 26
-44 58 -77 31 -32 66 -74 76 -93 11 -19 37 -62 58 -94 21 -33 38 -67 38 -75 0
-9 3 -27 6 -41 4 -14 -16 11 -44 55 -27 44 -59 88 -69 98 -19 16 -19 16 -15
-16 3 -17 1 -29 -3 -25 -4 4 -14 1 -22 -7 -12 -12 -10 -23 16 -76 29 -57 65
-121 133 -230 15 -25 37 -54 48 -64 20 -18 28 -55 12 -55 -5 0 -4 -20 2 -45 6
-25 14 -45 18 -45 5 0 8 -9 8 -20 0 -17 7 -20 38 -20 21 0 41 3 45 6 8 8 -15
44 -29 44 -15 0 -109 385 -129 525 -8 61 -19 140 -25 177 -5 37 -10 86 -10
110 0 69 -17 108 -34 80z"/>
<path d="M4451 305 c0 -11 6 -29 14 -39 15 -20 15 -20 15 0 0 11 -7 29 -15 40
-14 19 -14 19 -14 -1z"/>
<path d="M4620 101 c0 -6 4 -13 10 -16 6 -3 7 1 4 9 -7 18 -14 21 -14 7z"/>
<path d="M4811 14 c0 -11 3 -14 6 -6 3 7 2 16 -1 19 -3 4 -6 -2 -5 -13z"/>
</g>
</svg>
